# xmcd CD database file
#
# Track frame offsets:
#	150
#	20860
#	37587
#
# Disc length: 769 seconds
#
# Revision: 0
# Processed by: cddbd v1.5.1PL2 Copyright (c) Steve Scherf et al.
# Submitted via: CDex 1.51
#
DISCID=1902ff03
DTITLE=空〜SORA〜 - 風より速く
DYEAR=2005
DGENRE=Rock
TTITLE0=風より速く
TTITLE1=紫色の雨
TTITLE2=永遠
EXTD=YEAR: 2005
EXTT0=
EXTT1=
EXTT2=
PLAYORDER=
